<mxfile modified="2021-03-08T01:09:51.556Z" host="f351202d-3670-4c21-8355-002f6c3ba760" agent="5.0 (Windows NT 10.0; Win64; x64) AppleWebKit/537.36 (KHTML, like Gecko) Code/1.54.1 Chrome/87.0.4280.141 Electron/11.3.0 Safari/537.36" etag="Yv6RBFppmFOUg7tnIt94" version="14.2.4" type="embed" pages="2">
    <diagram id="ehAObHdDEu1SXS6SVDZ9" name="terminology">
        <mxGraphModel dx="1327" dy="645" grid="1" gridSize="10" guides="1" tooltips="1" connect="1" arrows="1" fold="1" page="1" pageScale="1" pageWidth="850" pageHeight="1100" math="0" shadow="0">
            <root>
                <mxCell id="0"/>
                <mxCell id="1" parent="0"/>
                <mxCell id="b4l5bXLFgzWaZXKV741L-25" value="" style="group" parent="1" vertex="1" connectable="0">
                    <mxGeometry x="120" y="40" width="360" height="360" as="geometry"/>
                </mxCell>
                <mxCell id="b4l5bXLFgzWaZXKV741L-1" value="23" style="ellipse;whiteSpace=wrap;html=1;aspect=fixed;" parent="b4l5bXLFgzWaZXKV741L-25" vertex="1">
                    <mxGeometry x="160" width="40" height="40" as="geometry"/>
                </mxCell>
                <mxCell id="b4l5bXLFgzWaZXKV741L-2" value="4" style="ellipse;whiteSpace=wrap;html=1;aspect=fixed;" parent="b4l5bXLFgzWaZXKV741L-25" vertex="1">
                    <mxGeometry x="40" y="80" width="40" height="40" as="geometry"/>
                </mxCell>
                <mxCell id="b4l5bXLFgzWaZXKV741L-3" value="30" style="ellipse;whiteSpace=wrap;html=1;aspect=fixed;" parent="b4l5bXLFgzWaZXKV741L-25" vertex="1">
                    <mxGeometry x="280" y="80" width="40" height="40" as="geometry"/>
                </mxCell>
                <mxCell id="b4l5bXLFgzWaZXKV741L-4" value="11" style="ellipse;whiteSpace=wrap;html=1;aspect=fixed;" parent="b4l5bXLFgzWaZXKV741L-25" vertex="1">
                    <mxGeometry x="80" y="160" width="40" height="40" as="geometry"/>
                </mxCell>
                <mxCell id="b4l5bXLFgzWaZXKV741L-5" value="7" style="ellipse;whiteSpace=wrap;html=1;aspect=fixed;" parent="b4l5bXLFgzWaZXKV741L-25" vertex="1">
                    <mxGeometry x="40" y="240" width="40" height="40" as="geometry"/>
                </mxCell>
                <mxCell id="b4l5bXLFgzWaZXKV741L-6" value="34" style="ellipse;whiteSpace=wrap;html=1;aspect=fixed;" parent="b4l5bXLFgzWaZXKV741L-25" vertex="1">
                    <mxGeometry x="320" y="160" width="40" height="40" as="geometry"/>
                </mxCell>
                <mxCell id="b4l5bXLFgzWaZXKV741L-7" value="20" style="ellipse;whiteSpace=wrap;html=1;aspect=fixed;" parent="b4l5bXLFgzWaZXKV741L-25" vertex="1">
                    <mxGeometry x="120" y="240" width="40" height="40" as="geometry"/>
                </mxCell>
                <mxCell id="b4l5bXLFgzWaZXKV741L-8" value="24" style="ellipse;whiteSpace=wrap;html=1;aspect=fixed;" parent="b4l5bXLFgzWaZXKV741L-25" vertex="1">
                    <mxGeometry x="240" y="160" width="40" height="40" as="geometry"/>
                </mxCell>
                <mxCell id="b4l5bXLFgzWaZXKV741L-9" value="22" style="ellipse;whiteSpace=wrap;html=1;aspect=fixed;" parent="b4l5bXLFgzWaZXKV741L-25" vertex="1">
                    <mxGeometry x="160" y="320" width="40" height="40" as="geometry"/>
                </mxCell>
                <mxCell id="b4l5bXLFgzWaZXKV741L-10" value="15" style="ellipse;whiteSpace=wrap;html=1;aspect=fixed;" parent="b4l5bXLFgzWaZXKV741L-25" vertex="1">
                    <mxGeometry x="80" y="320" width="40" height="40" as="geometry"/>
                </mxCell>
                <mxCell id="b4l5bXLFgzWaZXKV741L-12" value="1" style="ellipse;whiteSpace=wrap;html=1;aspect=fixed;" parent="b4l5bXLFgzWaZXKV741L-25" vertex="1">
                    <mxGeometry y="160" width="40" height="40" as="geometry"/>
                </mxCell>
                <mxCell id="b4l5bXLFgzWaZXKV741L-14" value="" style="endArrow=none;html=1;" parent="b4l5bXLFgzWaZXKV741L-25" source="b4l5bXLFgzWaZXKV741L-2" target="b4l5bXLFgzWaZXKV741L-1" edge="1">
                    <mxGeometry width="50" height="50" relative="1" as="geometry">
                        <mxPoint x="80" y="90" as="sourcePoint"/>
                        <mxPoint x="160" y="70" as="targetPoint"/>
                    </mxGeometry>
                </mxCell>
                <mxCell id="b4l5bXLFgzWaZXKV741L-16" value="" style="endArrow=none;html=1;" parent="b4l5bXLFgzWaZXKV741L-25" source="b4l5bXLFgzWaZXKV741L-12" target="b4l5bXLFgzWaZXKV741L-2" edge="1">
                    <mxGeometry width="50" height="50" relative="1" as="geometry">
                        <mxPoint y="430" as="sourcePoint"/>
                        <mxPoint x="50" y="380" as="targetPoint"/>
                    </mxGeometry>
                </mxCell>
                <mxCell id="b4l5bXLFgzWaZXKV741L-17" value="" style="endArrow=none;html=1;" parent="b4l5bXLFgzWaZXKV741L-25" source="b4l5bXLFgzWaZXKV741L-4" target="b4l5bXLFgzWaZXKV741L-2" edge="1">
                    <mxGeometry width="50" height="50" relative="1" as="geometry">
                        <mxPoint x="10" y="440" as="sourcePoint"/>
                        <mxPoint x="60" y="390" as="targetPoint"/>
                    </mxGeometry>
                </mxCell>
                <mxCell id="b4l5bXLFgzWaZXKV741L-18" value="" style="endArrow=none;html=1;" parent="b4l5bXLFgzWaZXKV741L-25" source="b4l5bXLFgzWaZXKV741L-5" target="b4l5bXLFgzWaZXKV741L-4" edge="1">
                    <mxGeometry width="50" height="50" relative="1" as="geometry">
                        <mxPoint x="20" y="450" as="sourcePoint"/>
                        <mxPoint x="70" y="400" as="targetPoint"/>
                    </mxGeometry>
                </mxCell>
                <mxCell id="b4l5bXLFgzWaZXKV741L-19" value="" style="endArrow=none;html=1;" parent="b4l5bXLFgzWaZXKV741L-25" source="b4l5bXLFgzWaZXKV741L-7" target="b4l5bXLFgzWaZXKV741L-4" edge="1">
                    <mxGeometry width="50" height="50" relative="1" as="geometry">
                        <mxPoint x="30" y="460" as="sourcePoint"/>
                        <mxPoint x="80" y="410" as="targetPoint"/>
                    </mxGeometry>
                </mxCell>
                <mxCell id="b4l5bXLFgzWaZXKV741L-20" value="" style="endArrow=none;html=1;" parent="b4l5bXLFgzWaZXKV741L-25" source="b4l5bXLFgzWaZXKV741L-10" target="b4l5bXLFgzWaZXKV741L-7" edge="1">
                    <mxGeometry width="50" height="50" relative="1" as="geometry">
                        <mxPoint x="40" y="470" as="sourcePoint"/>
                        <mxPoint x="90" y="420" as="targetPoint"/>
                    </mxGeometry>
                </mxCell>
                <mxCell id="b4l5bXLFgzWaZXKV741L-21" value="" style="endArrow=none;html=1;" parent="b4l5bXLFgzWaZXKV741L-25" source="b4l5bXLFgzWaZXKV741L-9" target="b4l5bXLFgzWaZXKV741L-7" edge="1">
                    <mxGeometry width="50" height="50" relative="1" as="geometry">
                        <mxPoint x="50" y="480" as="sourcePoint"/>
                        <mxPoint x="100" y="430" as="targetPoint"/>
                    </mxGeometry>
                </mxCell>
                <mxCell id="b4l5bXLFgzWaZXKV741L-22" value="" style="endArrow=none;html=1;" parent="b4l5bXLFgzWaZXKV741L-25" source="b4l5bXLFgzWaZXKV741L-8" target="b4l5bXLFgzWaZXKV741L-3" edge="1">
                    <mxGeometry width="50" height="50" relative="1" as="geometry">
                        <mxPoint x="60" y="490" as="sourcePoint"/>
                        <mxPoint x="110" y="440" as="targetPoint"/>
                    </mxGeometry>
                </mxCell>
                <mxCell id="b4l5bXLFgzWaZXKV741L-23" value="" style="endArrow=none;html=1;" parent="b4l5bXLFgzWaZXKV741L-25" source="b4l5bXLFgzWaZXKV741L-6" target="b4l5bXLFgzWaZXKV741L-3" edge="1">
                    <mxGeometry width="50" height="50" relative="1" as="geometry">
                        <mxPoint x="70" y="500" as="sourcePoint"/>
                        <mxPoint x="120" y="450" as="targetPoint"/>
                    </mxGeometry>
                </mxCell>
                <mxCell id="b4l5bXLFgzWaZXKV741L-24" value="" style="endArrow=none;html=1;" parent="b4l5bXLFgzWaZXKV741L-25" source="b4l5bXLFgzWaZXKV741L-3" target="b4l5bXLFgzWaZXKV741L-1" edge="1">
                    <mxGeometry width="50" height="50" relative="1" as="geometry">
                        <mxPoint x="80" y="510" as="sourcePoint"/>
                        <mxPoint x="130" y="460" as="targetPoint"/>
                    </mxGeometry>
                </mxCell>
                <mxCell id="b4l5bXLFgzWaZXKV741L-47" value="edge" style="text;html=1;strokeColor=none;fillColor=none;align=center;verticalAlign=middle;whiteSpace=wrap;rounded=0;" parent="b4l5bXLFgzWaZXKV741L-25" vertex="1">
                    <mxGeometry x="60" y="20" width="40" height="20" as="geometry"/>
                </mxCell>
                <mxCell id="b4l5bXLFgzWaZXKV741L-29" value="" style="endArrow=none;dashed=1;html=1;fillColor=#dae8fc;strokeColor=#6c8ebf;" parent="1" edge="1">
                    <mxGeometry width="50" height="50" relative="1" as="geometry">
                        <mxPoint x="330" y="60" as="sourcePoint"/>
                        <mxPoint x="560" y="60" as="targetPoint"/>
                    </mxGeometry>
                </mxCell>
                <mxCell id="b4l5bXLFgzWaZXKV741L-30" value="" style="endArrow=none;dashed=1;html=1;fillColor=#dae8fc;strokeColor=#6c8ebf;" parent="1" edge="1">
                    <mxGeometry width="50" height="50" relative="1" as="geometry">
                        <mxPoint x="450" y="140" as="sourcePoint"/>
                        <mxPoint x="560" y="140" as="targetPoint"/>
                    </mxGeometry>
                </mxCell>
                <mxCell id="b4l5bXLFgzWaZXKV741L-31" value="" style="endArrow=none;dashed=1;html=1;fillColor=#dae8fc;strokeColor=#6c8ebf;" parent="1" edge="1">
                    <mxGeometry width="50" height="50" relative="1" as="geometry">
                        <mxPoint x="490" y="220" as="sourcePoint"/>
                        <mxPoint x="560" y="220" as="targetPoint"/>
                    </mxGeometry>
                </mxCell>
                <mxCell id="b4l5bXLFgzWaZXKV741L-32" value="" style="endArrow=none;dashed=1;html=1;fillColor=#dae8fc;strokeColor=#6c8ebf;" parent="1" edge="1">
                    <mxGeometry width="50" height="50" relative="1" as="geometry">
                        <mxPoint x="290" y="300" as="sourcePoint"/>
                        <mxPoint x="560" y="300" as="targetPoint"/>
                    </mxGeometry>
                </mxCell>
                <mxCell id="b4l5bXLFgzWaZXKV741L-33" value="" style="endArrow=none;dashed=1;html=1;fillColor=#dae8fc;strokeColor=#6c8ebf;" parent="1" edge="1">
                    <mxGeometry width="50" height="50" relative="1" as="geometry">
                        <mxPoint x="330" y="380" as="sourcePoint"/>
                        <mxPoint x="560" y="380" as="targetPoint"/>
                    </mxGeometry>
                </mxCell>
                <mxCell id="b4l5bXLFgzWaZXKV741L-34" value="Level 0" style="text;html=1;strokeColor=none;fillColor=none;align=center;verticalAlign=middle;whiteSpace=wrap;rounded=0;" parent="1" vertex="1">
                    <mxGeometry x="560" y="50" width="50" height="20" as="geometry"/>
                </mxCell>
                <mxCell id="b4l5bXLFgzWaZXKV741L-35" value="Level 1" style="text;html=1;strokeColor=none;fillColor=none;align=center;verticalAlign=middle;whiteSpace=wrap;rounded=0;" parent="1" vertex="1">
                    <mxGeometry x="560" y="130" width="50" height="20" as="geometry"/>
                </mxCell>
                <mxCell id="b4l5bXLFgzWaZXKV741L-36" value="Level 2" style="text;html=1;strokeColor=none;fillColor=none;align=center;verticalAlign=middle;whiteSpace=wrap;rounded=0;" parent="1" vertex="1">
                    <mxGeometry x="560" y="210" width="50" height="20" as="geometry"/>
                </mxCell>
                <mxCell id="b4l5bXLFgzWaZXKV741L-37" value="Level 3" style="text;html=1;strokeColor=none;fillColor=none;align=center;verticalAlign=middle;whiteSpace=wrap;rounded=0;" parent="1" vertex="1">
                    <mxGeometry x="560" y="290" width="50" height="20" as="geometry"/>
                </mxCell>
                <mxCell id="b4l5bXLFgzWaZXKV741L-38" value="Level 4" style="text;html=1;strokeColor=none;fillColor=none;align=center;verticalAlign=middle;whiteSpace=wrap;rounded=0;" parent="1" vertex="1">
                    <mxGeometry x="560" y="370" width="50" height="20" as="geometry"/>
                </mxCell>
                <mxCell id="b4l5bXLFgzWaZXKV741L-39" value="" style="endArrow=none;dashed=1;html=1;fillColor=#dae8fc;strokeColor=#6c8ebf;" parent="1" edge="1">
                    <mxGeometry width="50" height="50" relative="1" as="geometry">
                        <mxPoint x="100" y="60" as="sourcePoint"/>
                        <mxPoint x="60" y="60" as="targetPoint"/>
                    </mxGeometry>
                </mxCell>
                <mxCell id="b4l5bXLFgzWaZXKV741L-41" value="Height" style="text;html=1;strokeColor=none;fillColor=none;align=center;verticalAlign=middle;whiteSpace=wrap;rounded=0;" parent="1" vertex="1">
                    <mxGeometry x="50" y="200" width="60" height="20" as="geometry"/>
                </mxCell>
                <mxCell id="b4l5bXLFgzWaZXKV741L-42" value="" style="endArrow=none;dashed=1;html=1;fillColor=#dae8fc;strokeColor=#6c8ebf;entryX=0.5;entryY=0;entryDx=0;entryDy=0;" parent="1" target="b4l5bXLFgzWaZXKV741L-41" edge="1">
                    <mxGeometry width="50" height="50" relative="1" as="geometry">
                        <mxPoint x="80" y="70" as="sourcePoint"/>
                        <mxPoint x="50" y="70" as="targetPoint"/>
                    </mxGeometry>
                </mxCell>
                <mxCell id="b4l5bXLFgzWaZXKV741L-43" value="" style="endArrow=none;dashed=1;html=1;fillColor=#dae8fc;strokeColor=#6c8ebf;entryX=0.5;entryY=1;entryDx=0;entryDy=0;" parent="1" target="b4l5bXLFgzWaZXKV741L-41" edge="1">
                    <mxGeometry width="50" height="50" relative="1" as="geometry">
                        <mxPoint x="80" y="370" as="sourcePoint"/>
                        <mxPoint x="90" y="210" as="targetPoint"/>
                    </mxGeometry>
                </mxCell>
                <mxCell id="b4l5bXLFgzWaZXKV741L-45" value="" style="endArrow=none;dashed=1;html=1;fillColor=#dae8fc;strokeColor=#6c8ebf;" parent="1" edge="1">
                    <mxGeometry width="50" height="50" relative="1" as="geometry">
                        <mxPoint x="100" y="380" as="sourcePoint"/>
                        <mxPoint x="60" y="380" as="targetPoint"/>
                    </mxGeometry>
                </mxCell>
                <mxCell id="b4l5bXLFgzWaZXKV741L-46" value="root" style="text;html=1;strokeColor=none;fillColor=none;align=center;verticalAlign=middle;whiteSpace=wrap;rounded=0;" parent="1" vertex="1">
                    <mxGeometry x="200" y="20" width="40" height="20" as="geometry"/>
                </mxCell>
                <mxCell id="b4l5bXLFgzWaZXKV741L-48" value="" style="endArrow=classic;html=1;dashed=1;fillColor=#dae8fc;strokeColor=#6c8ebf;" parent="1" source="b4l5bXLFgzWaZXKV741L-47" edge="1">
                    <mxGeometry width="50" height="50" relative="1" as="geometry">
                        <mxPoint x="280" y="120" as="sourcePoint"/>
                        <mxPoint x="230" y="100" as="targetPoint"/>
                    </mxGeometry>
                </mxCell>
                <mxCell id="b4l5bXLFgzWaZXKV741L-49" value="" style="endArrow=classic;html=1;dashed=1;fillColor=#dae8fc;strokeColor=#6c8ebf;" parent="1" source="b4l5bXLFgzWaZXKV741L-46" edge="1">
                    <mxGeometry width="50" height="50" relative="1" as="geometry">
                        <mxPoint x="211" y="90" as="sourcePoint"/>
                        <mxPoint x="280" y="53" as="targetPoint"/>
                    </mxGeometry>
                </mxCell>
            </root>
        </mxGraphModel>
    </diagram>
    <diagram id="RdUVpcP53CW-unpzsixs" name="height">
        <mxGraphModel dx="1327" dy="645" grid="1" gridSize="10" guides="1" tooltips="1" connect="1" arrows="1" fold="1" page="1" pageScale="1" pageWidth="850" pageHeight="1100" math="0" shadow="0">
            <root>
                <mxCell id="gGrMyCOIXx4j0gFUDUOT-0"/>
                <mxCell id="gGrMyCOIXx4j0gFUDUOT-1" parent="gGrMyCOIXx4j0gFUDUOT-0"/>
                <mxCell id="eluKQl_P66lSLn_f7MQ4-0" value="" style="group" vertex="1" connectable="0" parent="gGrMyCOIXx4j0gFUDUOT-1">
                    <mxGeometry x="120" y="40" width="370" height="370" as="geometry"/>
                </mxCell>
                <mxCell id="eluKQl_P66lSLn_f7MQ4-1" value="23" style="ellipse;whiteSpace=wrap;html=1;aspect=fixed;" vertex="1" parent="eluKQl_P66lSLn_f7MQ4-0">
                    <mxGeometry x="160" width="40" height="40" as="geometry"/>
                </mxCell>
                <mxCell id="eluKQl_P66lSLn_f7MQ4-2" value="4" style="ellipse;whiteSpace=wrap;html=1;aspect=fixed;" vertex="1" parent="eluKQl_P66lSLn_f7MQ4-0">
                    <mxGeometry x="40" y="80" width="40" height="40" as="geometry"/>
                </mxCell>
                <mxCell id="eluKQl_P66lSLn_f7MQ4-3" value="30" style="ellipse;whiteSpace=wrap;html=1;aspect=fixed;" vertex="1" parent="eluKQl_P66lSLn_f7MQ4-0">
                    <mxGeometry x="280" y="80" width="40" height="40" as="geometry"/>
                </mxCell>
                <mxCell id="eluKQl_P66lSLn_f7MQ4-4" value="11" style="ellipse;whiteSpace=wrap;html=1;aspect=fixed;" vertex="1" parent="eluKQl_P66lSLn_f7MQ4-0">
                    <mxGeometry x="80" y="160" width="40" height="40" as="geometry"/>
                </mxCell>
                <mxCell id="eluKQl_P66lSLn_f7MQ4-5" value="7" style="ellipse;whiteSpace=wrap;html=1;aspect=fixed;" vertex="1" parent="eluKQl_P66lSLn_f7MQ4-0">
                    <mxGeometry x="40" y="240" width="40" height="40" as="geometry"/>
                </mxCell>
                <mxCell id="eluKQl_P66lSLn_f7MQ4-6" value="34" style="ellipse;whiteSpace=wrap;html=1;aspect=fixed;" vertex="1" parent="eluKQl_P66lSLn_f7MQ4-0">
                    <mxGeometry x="320" y="160" width="40" height="40" as="geometry"/>
                </mxCell>
                <mxCell id="eluKQl_P66lSLn_f7MQ4-7" value="20" style="ellipse;whiteSpace=wrap;html=1;aspect=fixed;" vertex="1" parent="eluKQl_P66lSLn_f7MQ4-0">
                    <mxGeometry x="120" y="240" width="40" height="40" as="geometry"/>
                </mxCell>
                <mxCell id="eluKQl_P66lSLn_f7MQ4-8" value="24" style="ellipse;whiteSpace=wrap;html=1;aspect=fixed;" vertex="1" parent="eluKQl_P66lSLn_f7MQ4-0">
                    <mxGeometry x="240" y="160" width="40" height="40" as="geometry"/>
                </mxCell>
                <mxCell id="eluKQl_P66lSLn_f7MQ4-9" value="22" style="ellipse;whiteSpace=wrap;html=1;aspect=fixed;" vertex="1" parent="eluKQl_P66lSLn_f7MQ4-0">
                    <mxGeometry x="160" y="320" width="40" height="40" as="geometry"/>
                </mxCell>
                <mxCell id="eluKQl_P66lSLn_f7MQ4-10" value="15" style="ellipse;whiteSpace=wrap;html=1;aspect=fixed;" vertex="1" parent="eluKQl_P66lSLn_f7MQ4-0">
                    <mxGeometry x="80" y="320" width="40" height="40" as="geometry"/>
                </mxCell>
                <mxCell id="eluKQl_P66lSLn_f7MQ4-12" value="" style="endArrow=none;html=1;" edge="1" parent="eluKQl_P66lSLn_f7MQ4-0" source="eluKQl_P66lSLn_f7MQ4-2" target="eluKQl_P66lSLn_f7MQ4-1">
                    <mxGeometry width="50" height="50" relative="1" as="geometry">
                        <mxPoint x="80" y="90" as="sourcePoint"/>
                        <mxPoint x="160" y="70" as="targetPoint"/>
                    </mxGeometry>
                </mxCell>
                <mxCell id="eluKQl_P66lSLn_f7MQ4-14" value="" style="endArrow=none;html=1;" edge="1" parent="eluKQl_P66lSLn_f7MQ4-0" source="eluKQl_P66lSLn_f7MQ4-4" target="eluKQl_P66lSLn_f7MQ4-2">
                    <mxGeometry width="50" height="50" relative="1" as="geometry">
                        <mxPoint x="10" y="440" as="sourcePoint"/>
                        <mxPoint x="60" y="390" as="targetPoint"/>
                    </mxGeometry>
                </mxCell>
                <mxCell id="eluKQl_P66lSLn_f7MQ4-15" value="" style="endArrow=none;html=1;" edge="1" parent="eluKQl_P66lSLn_f7MQ4-0" source="eluKQl_P66lSLn_f7MQ4-5" target="eluKQl_P66lSLn_f7MQ4-4">
                    <mxGeometry width="50" height="50" relative="1" as="geometry">
                        <mxPoint x="20" y="450" as="sourcePoint"/>
                        <mxPoint x="70" y="400" as="targetPoint"/>
                    </mxGeometry>
                </mxCell>
                <mxCell id="eluKQl_P66lSLn_f7MQ4-16" value="" style="endArrow=none;html=1;" edge="1" parent="eluKQl_P66lSLn_f7MQ4-0" source="eluKQl_P66lSLn_f7MQ4-7" target="eluKQl_P66lSLn_f7MQ4-4">
                    <mxGeometry width="50" height="50" relative="1" as="geometry">
                        <mxPoint x="30" y="460" as="sourcePoint"/>
                        <mxPoint x="80" y="410" as="targetPoint"/>
                    </mxGeometry>
                </mxCell>
                <mxCell id="eluKQl_P66lSLn_f7MQ4-17" value="" style="endArrow=none;html=1;" edge="1" parent="eluKQl_P66lSLn_f7MQ4-0" source="eluKQl_P66lSLn_f7MQ4-10" target="eluKQl_P66lSLn_f7MQ4-7">
                    <mxGeometry width="50" height="50" relative="1" as="geometry">
                        <mxPoint x="40" y="470" as="sourcePoint"/>
                        <mxPoint x="90" y="420" as="targetPoint"/>
                    </mxGeometry>
                </mxCell>
                <mxCell id="eluKQl_P66lSLn_f7MQ4-18" value="" style="endArrow=none;html=1;" edge="1" parent="eluKQl_P66lSLn_f7MQ4-0" source="eluKQl_P66lSLn_f7MQ4-9" target="eluKQl_P66lSLn_f7MQ4-7">
                    <mxGeometry width="50" height="50" relative="1" as="geometry">
                        <mxPoint x="50" y="480" as="sourcePoint"/>
                        <mxPoint x="100" y="430" as="targetPoint"/>
                    </mxGeometry>
                </mxCell>
                <mxCell id="eluKQl_P66lSLn_f7MQ4-19" value="" style="endArrow=none;html=1;" edge="1" parent="eluKQl_P66lSLn_f7MQ4-0" source="eluKQl_P66lSLn_f7MQ4-8" target="eluKQl_P66lSLn_f7MQ4-3">
                    <mxGeometry width="50" height="50" relative="1" as="geometry">
                        <mxPoint x="60" y="490" as="sourcePoint"/>
                        <mxPoint x="110" y="440" as="targetPoint"/>
                    </mxGeometry>
                </mxCell>
                <mxCell id="eluKQl_P66lSLn_f7MQ4-20" value="" style="endArrow=none;html=1;" edge="1" parent="eluKQl_P66lSLn_f7MQ4-0" source="eluKQl_P66lSLn_f7MQ4-6" target="eluKQl_P66lSLn_f7MQ4-3">
                    <mxGeometry width="50" height="50" relative="1" as="geometry">
                        <mxPoint x="70" y="500" as="sourcePoint"/>
                        <mxPoint x="120" y="450" as="targetPoint"/>
                    </mxGeometry>
                </mxCell>
                <mxCell id="eluKQl_P66lSLn_f7MQ4-21" value="" style="endArrow=none;html=1;" edge="1" parent="eluKQl_P66lSLn_f7MQ4-0" source="eluKQl_P66lSLn_f7MQ4-3" target="eluKQl_P66lSLn_f7MQ4-1">
                    <mxGeometry width="50" height="50" relative="1" as="geometry">
                        <mxPoint x="80" y="510" as="sourcePoint"/>
                        <mxPoint x="130" y="460" as="targetPoint"/>
                    </mxGeometry>
                </mxCell>
                <mxCell id="eluKQl_P66lSLn_f7MQ4-40" value="" style="rounded=0;whiteSpace=wrap;html=1;fillColor=none;strokeColor=#1BA1E2;dashed=1;" vertex="1" parent="eluKQl_P66lSLn_f7MQ4-0">
                    <mxGeometry x="230" y="70" width="140" height="140" as="geometry"/>
                </mxCell>
                <mxCell id="eluKQl_P66lSLn_f7MQ4-41" value="Subtree Height: 1" style="text;html=1;strokeColor=none;fillColor=none;align=center;verticalAlign=middle;whiteSpace=wrap;rounded=0;dashed=1;" vertex="1" parent="eluKQl_P66lSLn_f7MQ4-0">
                    <mxGeometry x="255" y="50" width="100" height="20" as="geometry"/>
                </mxCell>
                <mxCell id="eluKQl_P66lSLn_f7MQ4-42" value="" style="rounded=0;whiteSpace=wrap;html=1;fillColor=none;strokeColor=#1BA1E2;dashed=1;" vertex="1" parent="eluKQl_P66lSLn_f7MQ4-0">
                    <mxGeometry x="30" y="150" width="180" height="220" as="geometry"/>
                </mxCell>
                <mxCell id="eluKQl_P66lSLn_f7MQ4-43" value="Subtree Height: 2" style="text;html=1;strokeColor=none;fillColor=none;align=center;verticalAlign=middle;whiteSpace=wrap;rounded=0;dashed=1;" vertex="1" parent="eluKQl_P66lSLn_f7MQ4-0">
                    <mxGeometry x="90" y="130" width="100" height="20" as="geometry"/>
                </mxCell>
                <mxCell id="eluKQl_P66lSLn_f7MQ4-33" value="" style="endArrow=none;dashed=1;html=1;fillColor=#dae8fc;strokeColor=#6c8ebf;" edge="1" parent="gGrMyCOIXx4j0gFUDUOT-1">
                    <mxGeometry width="50" height="50" relative="1" as="geometry">
                        <mxPoint x="270" y="60" as="sourcePoint"/>
                        <mxPoint x="60" y="60" as="targetPoint"/>
                    </mxGeometry>
                </mxCell>
                <mxCell id="eluKQl_P66lSLn_f7MQ4-34" value="Height: 4" style="text;html=1;strokeColor=none;fillColor=none;align=center;verticalAlign=middle;whiteSpace=wrap;rounded=0;" vertex="1" parent="gGrMyCOIXx4j0gFUDUOT-1">
                    <mxGeometry x="50" y="200" width="60" height="20" as="geometry"/>
                </mxCell>
                <mxCell id="eluKQl_P66lSLn_f7MQ4-35" value="" style="endArrow=none;dashed=1;html=1;fillColor=#dae8fc;strokeColor=#6c8ebf;entryX=0.5;entryY=0;entryDx=0;entryDy=0;" edge="1" parent="gGrMyCOIXx4j0gFUDUOT-1" target="eluKQl_P66lSLn_f7MQ4-34">
                    <mxGeometry width="50" height="50" relative="1" as="geometry">
                        <mxPoint x="80" y="70" as="sourcePoint"/>
                        <mxPoint x="50" y="70" as="targetPoint"/>
                    </mxGeometry>
                </mxCell>
                <mxCell id="eluKQl_P66lSLn_f7MQ4-36" value="" style="endArrow=none;dashed=1;html=1;fillColor=#dae8fc;strokeColor=#6c8ebf;entryX=0.5;entryY=1;entryDx=0;entryDy=0;" edge="1" parent="gGrMyCOIXx4j0gFUDUOT-1" target="eluKQl_P66lSLn_f7MQ4-34">
                    <mxGeometry width="50" height="50" relative="1" as="geometry">
                        <mxPoint x="80" y="370" as="sourcePoint"/>
                        <mxPoint x="90" y="210" as="targetPoint"/>
                    </mxGeometry>
                </mxCell>
                <mxCell id="eluKQl_P66lSLn_f7MQ4-37" value="" style="endArrow=none;dashed=1;html=1;fillColor=#dae8fc;strokeColor=#6c8ebf;" edge="1" parent="gGrMyCOIXx4j0gFUDUOT-1">
                    <mxGeometry width="50" height="50" relative="1" as="geometry">
                        <mxPoint x="190" y="380" as="sourcePoint"/>
                        <mxPoint x="60" y="380" as="targetPoint"/>
                    </mxGeometry>
                </mxCell>
            </root>
        </mxGraphModel>
    </diagram>
</mxfile>
